<?xml version="1.0" encoding="UTF-8"?><svg xmlns="http://www.w3.org/2000/svg" xmlns:xlink="http://www.w3.org/1999/xlink" viewBox="0 0 241.61 115.59"><defs><style>.k{fill:url(#g);}.l{fill:url(#f);}.m{fill:url(#i);}.n{fill:url(#h);}.o{fill:url(#j);}.p{fill:#fff;}.q{fill:#ced6ff;}</style><linearGradient id="f" x1="120.8" y1="2.41" x2="120.8" y2="114.37" gradientTransform="translate(0 118) scale(1 -1)" gradientUnits="userSpaceOnUse"><stop offset="0" stop-color="#8b9ad1"/><stop offset="1" stop-color="#cee0ff"/></linearGradient><linearGradient id="g" x1="120.81" y1="6.04" x2="120.81" y2="118" gradientTransform="translate(0 118) scale(1 -1)" gradientUnits="userSpaceOnUse"><stop offset="0" stop-color="#cadcff"/><stop offset="1" stop-color="#fff"/></linearGradient><radialGradient id="h" cx="122.28" cy="20.53" fx="122.28" fy="20.53" r="86.28" gradientTransform="translate(0 118) scale(1 -1)" gradientUnits="userSpaceOnUse"><stop offset="0" stop-color="#ffbd00"/><stop offset="1" stop-color="#ff772c"/></radialGradient><linearGradient id="i" x1="118.67" y1="20.48" x2="118.67" y2="110.14" gradientTransform="translate(0 118) scale(1 -1)" gradientUnits="userSpaceOnUse"><stop offset="0" stop-color="#fc0"/><stop offset="1" stop-color="#ff4600"/></linearGradient><linearGradient id="j" x1="-1987.87" y1="31.57" x2="-1795.85" y2="31.57" gradientTransform="translate(-1772.57 118) rotate(-180)" gradientUnits="userSpaceOnUse"><stop offset="0" stop-color="#ff6140"/><stop offset=".1" stop-color="#ee5a3b"/><stop offset=".29" stop-color="#c44a31"/><stop offset=".55" stop-color="#803020"/><stop offset=".88" stop-color="#240d09"/><stop offset="1" stop-color="#000"/></linearGradient></defs><g id="a"/><g id="b"><g id="c"><g id="d"><g id="e"><g><path class="l" d="M232.24,102.37c-.21,.23-.45,.45-.73,.66-20.64,16.86-199.54,16.26-224.45,1.12-1.31-.78-2.18-1.62-2.6-2.49C-4.38,83.26,.42,27.91,14.45,15.93,29.51,3.1,209.45-2.7,228.05,13.61c13.65,11.96,20.15,71.98,4.18,88.75h.01Z"/><path class="k" d="M4.46,98.01c8.52,17.75,210.22,19.17,227.79,.72,15.96-16.77,9.47-76.79-4.18-88.76C209.46-6.34,29.51-.53,14.45,12.3,.41,24.27-4.37,79.62,4.46,98.01Z"/><path class="p" d="M12.71,91.97s27.23,14.58,111.13,14.58,97.36-14.58,97.36-14.58H12.71Z"/><path class="q" d="M231.51,91.96v11.07c-20.64,16.86-199.54,16.26-224.45,1.12l.52-3.33,5.13-8.86,215.1-9.99,3.7,9.99Z"/><path class="n" d="M10.76,89.96c7.73,16.11,195.08,20.64,211.03,3.89,14.5-15.22,8.6-69.72-3.8-80.59C201.1-1.55,34.63,8.85,20.96,20.51,8.21,31.37,2.74,73.26,10.76,89.96Z"/><path d="M11.38,87.12c7.71,15.54,193.94,16.65,209.83,.5,14.44-14.68,8.76-63.22-3.59-73.7C200.79-.37,34.94,9.66,21.32,20.9,8.62,31.37,3.39,71.01,11.38,87.12Z"/><path class="m" d="M13.7,85.74c7.54,15.08,189.75,16.15,205.29,.48,14.13-14.25,8.57-61.35-3.51-71.52C199.02,.85,36.75,10.58,23.43,21.48,11,31.65,5.88,70.12,13.7,85.74Z"/><path class="o" d="M215.29,86.51s-84.99,14.97-192.01,1.76c0,0,69.53,6.03,100.46,0,52.52-10.23,77.75-13.26,91.56-1.76h0Z"/><path class="p" d="M18.19,28.07s2.66-5.47,8.85-8.41c6.19-2.93,23.79-5.87,24.79-5.13s-8.58,4.21-13.53,6.03c-4.95,1.82-17.58,8.91-20.1,7.51h-.01Z"/><path class="p" d="M17.65,29.54c-1.27,.19-4.45,10.06-4.26,11.69s4.01-3.51,4.61-6.23c.6-2.73-.35-5.45-.35-5.45h0Z"/><path class="p" d="M212.99,90.75c-.89-1.59,6.98-8.81,8.97-8.78s.22,4.75-.99,5.86c-1.21,1.1-7.54,3.71-7.98,2.92Z"/></g></g></g></g></g></svg>