<?xml version="1.0" encoding="utf-8"?>
<!-- Generator: Adobe Illustrator 26.1.0, SVG Export Plug-In . SVG Version: 6.00 Build 0)  -->
<svg version="1.1" id="Layer_1" xmlns="http://www.w3.org/2000/svg" xmlns:xlink="http://www.w3.org/1999/xlink" x="0px" y="0px"
	 viewBox="0 0 413.4 200.8" style="enable-background:new 0 0 413.4 200.8;" xml:space="preserve">
<style type="text/css">
	.st0{fill:url(#SVGID_1_);}
	.st1{fill:url(#SVGID_00000092452834218154981990000005534773189590408125_);}
	.st2{fill:url(#SVGID_00000115495220996290150620000014914422631711892877_);}
	.st3{fill:url(#SVGID_00000001626221220369660780000014945304365246119064_);}
	.st4{fill:url(#SVGID_00000163751154845857829450000014862050205963595952_);}
	.st5{fill:url(#SVGID_00000026874510967280962510000005105449742243423920_);}
	.st6{fill:url(#SVGID_00000006688369821983994930000014943178474793050281_);}
	.st7{fill:url(#SVGID_00000035530969940837994960000007056203862221219219_);}
	.st8{fill:url(#SVGID_00000077302974568936145090000017118605205573329284_);}
	.st9{fill:url(#SVGID_00000000225091626533596920000015804562651132765327_);}
	.st10{fill:#00D5FF;}
	.st11{fill:url(#SVGID_00000111159301580397068590000006414712049316089263_);}
	.st12{fill:url(#SVGID_00000168075869478129810040000007268268421901290410_);}
	.st13{fill:url(#SVGID_00000013177239777454723990000011605279525974723969_);}
	.st14{fill:url(#SVGID_00000054963832442315806520000013492262007150661822_);}
	.st15{fill:url(#SVGID_00000090293755969950097760000003033483624134781834_);}
	.st16{fill:url(#SVGID_00000003086477721032759410000015285810043897829779_);}
	.st17{fill:url(#SVGID_00000045593171990476459220000002125460038642961079_);}
	.st18{fill:url(#SVGID_00000025440624156852975130000009376273067109529988_);}
	.st19{fill:url(#SVGID_00000017503561097930736090000009108682380779411072_);}
	.st20{fill:url(#SVGID_00000087407507418534648430000011624947014152329404_);}
	.st21{fill:url(#SVGID_00000136387945464562934610000006368321921871156110_);}
	.st22{fill:url(#SVGID_00000111168801771960880780000016548614953384622756_);}
	.st23{fill:url(#SVGID_00000065786124723587892630000011918565314174628774_);}
	.st24{fill:url(#SVGID_00000116229228444595175230000003053988646954738356_);}
	.st25{fill:url(#SVGID_00000139279263923952549400000018443617584103608998_);}
	.st26{fill:url(#SVGID_00000091697209525974409040000007311632458323328438_);}
	.st27{fill:url(#SVGID_00000101099160074732098740000005671036826617364101_);}
	.st28{fill:url(#SVGID_00000021824681297663963720000013094725199503709851_);}
	.st29{fill:#FFFFFF;}
	.st30{opacity:0.5;fill:#FFFFFF;enable-background:new    ;}
	.st31{fill:#72A1DD;}
	.st32{opacity:0.2;fill:url(#SVGID_00000111874029682629498820000017617666185604604310_);enable-background:new    ;}
</style>
<g>
	<g id="a">
	</g>
	<g id="b">
		<g id="c">
			<g>
				<g>
					
						<linearGradient id="SVGID_1_" gradientUnits="userSpaceOnUse" x1="59.9381" y1="84.54" x2="59.9381" y2="197.6" gradientTransform="matrix(1 0 0 -1 0 202)">
						<stop  offset="0" style="stop-color:#008CCA"/>
						<stop  offset="1" style="stop-color:#003BF1"/>
					</linearGradient>
					<path class="st0" d="M13,76.8l26.6-2.3c14,9.2,24.8,13.7,32.5,13.7c2.8,0,5.4-0.8,7.9-2.4c2.8-1.8,4.2-4,4.2-6.7
						c0-4-5.2-7.3-15.6-9.9c-15.2-3.9-25.4-11.8-30.7-23.8c-1.7-3.9-2.6-7.6-2.6-11.1c0-9,4.6-15.8,13.6-20.4
						c7.1-3.6,30.4-9.5,40.3-9.5l16.1,7.6l-8,23.9c-8.6-1.8-11.8-3.8-17.4-3.8c-2.5,0-8.1-2.4-11.9-0.4c-3,1.5-4.6,3.4-4.6,5.8
						s2,4.7,6,7.2c2.8,1.8,8.1,4.2,16,7.3c6.8,2.7,11.6,5.3,14.5,7.8c4.3,3.8,6.6,8.9,6.9,15.3c0.5,10.6-4.4,20.2-14.7,28.8
						c-4.4,3.7-16.6,13.4-41.9,13.4C39.1,117.5,29.2,95.1,13,76.8L13,76.8z"/>
					
						<linearGradient id="SVGID_00000068642445757663319380000005566165077057400731_" gradientUnits="userSpaceOnUse" x1="138.04" y1="82.19" x2="138.04" y2="198.9693" gradientTransform="matrix(1 0 0 -1 0 202)">
						<stop  offset="0" style="stop-color:#008CCA"/>
						<stop  offset="1" style="stop-color:#003BF1"/>
					</linearGradient>
					<path style="fill:url(#SVGID_00000068642445757663319380000005566165077057400731_);" d="M124.7,3.1
						c22,2.8,34.7,14.2,40.6,27.9c1.6,3.7,2.4,7.1,2.4,10.3c0,13.1-12.8,23.4-38.4,30.7l-1.4,39.7l-12.5,8.2l-7-107.1
						C115.9,11.2,118.7,2.3,124.7,3.1L124.7,3.1z M145.8,38.8c-0.2-3.3-5.1-6-14.5-8.1l-0.7,18.9C141,45.7,146,42.1,145.8,38.8
						L145.8,38.8z"/>
					
						<linearGradient id="SVGID_00000163751250484034071220000004844957078820214912_" gradientUnits="userSpaceOnUse" x1="204.905" y1="85.41" x2="204.905" y2="192.86" gradientTransform="matrix(1 0 0 -1 0 202)">
						<stop  offset="0" style="stop-color:#008CCA"/>
						<stop  offset="1" style="stop-color:#003BF1"/>
					</linearGradient>
					<path style="fill:url(#SVGID_00000163751250484034071220000004844957078820214912_);" d="M196.8,75.9l-7.7,33l-2.8,7.8
						l8.3-107.4h21.4l7.4,105.2l-2.3-7.5l-7.2-31H196.8L196.8,75.9z M210.1,59.8l-4.8-20.3l-4.8,20.7L210.1,59.8L210.1,59.8z"/>
					
						<linearGradient id="SVGID_00000062187848387603719920000012678604805520143282_" gradientUnits="userSpaceOnUse" x1="292.4699" y1="87.9754" x2="292.4699" y2="198.31" gradientTransform="matrix(1 0 0 -1 0 202)">
						<stop  offset="0" style="stop-color:#008CCA"/>
						<stop  offset="1" style="stop-color:#003BF1"/>
					</linearGradient>
					<path style="fill:url(#SVGID_00000062187848387603719920000012678604805520143282_);" d="M298.1,53.7
						c-1.4-10-6.5-14.8-15.5-14.1c-9,0.7-13.9,6.7-14.8,18.2c-0.1,1.4-0.2,2.6-0.2,3.5c0,9.6,3.5,16.7,10.5,21.3
						c2.5,1.7,4.9,2.5,7.1,2.5c4.7,0,8.8-3.6,12.3-10.8l21.8,1.6l20,2.7c-7,22.2-35.1,30.6-48,30.1c-12.9-0.4-8.7,6.8-12.6,4.9
						c-17.3-6.5-24.7-17.8-27.9-26.5c-1.9-5.1-3.4-13.1-4.5-24.1c-0.3-3.2-0.5-6-0.5-8.4c0-12.7,3.8-22.6,9.6-30.9
						c7-10.1,21.6-20.1,34-20.1c2.6,0,0.2,7.5,2.6,7.8c15.2,2.1,24.6,15.4,28.3,39.9L298.1,53.7L298.1,53.7z"/>
					
						<linearGradient id="SVGID_00000014634760056521233670000001477810982482562486_" gradientUnits="userSpaceOnUse" x1="368.17" y1="84.72" x2="368.17" y2="202" gradientTransform="matrix(1 0 0 -1 0 202)">
						<stop  offset="0" style="stop-color:#008CCA"/>
						<stop  offset="1" style="stop-color:#003BF1"/>
					</linearGradient>
					<path style="fill:url(#SVGID_00000014634760056521233670000001477810982482562486_);" d="M413.3,32.3L385,36.1l-38.8-0.7v14.2
						h33l-0.7,21.6l-32.3-0.7V84h35.5l27.8,3.8l-68.1,29.5l-18.5-7.9l2.2-101.2L344,0L413.3,32.3z"/>
				</g>
				<g>
					
						<linearGradient id="SVGID_00000165202958884846918130000002370711350665236910_" gradientUnits="userSpaceOnUse" x1="45.5265" y1="84.54" x2="45.5265" y2="201.62" gradientTransform="matrix(1 0 0 -1 0 202)">
						<stop  offset="0" style="stop-color:#00EFF1"/>
						<stop  offset="1" style="stop-color:#0098FF"/>
					</linearGradient>
					<path style="fill:url(#SVGID_00000165202958884846918130000002370711350665236910_);" d="M91,77.8c-0.2-4.9-1.4-9.1-3.6-12.7
						c-1.2-1.9-2.6-3.6-4.4-5.2c-3.3-2.9-8.9-6-16.8-9.1c-5.5-2.2-10-4.1-13.4-5.7c-2.2-1.1-3.9-2-5.2-2.8c-0.9-0.5-1.6-1.1-2.3-1.6
						c-3.1-2.3-4.6-4.6-4.6-6.8c0-2.8,1.8-5.1,5.3-6.8c2.9-1.4,5.9-2.1,8.8-2.1c1.4,0,3,0.1,4.6,0.4c2.9,0.4,6,1.2,9.5,2.3
						c3.4,1.1,7.1,2.6,11.1,4.4l9.3-27.7c-1.5-0.3-3-0.6-4.5-0.8C82,3,79.3,2.6,76.6,2.2C68.4,1,61,0.4,54.3,0.4h-1.6
						C41.6,0.5,32,2.6,23.9,6.6c-5.9,2.9-10.1,6.7-12.7,11.2c-0.4,0.7-0.8,1.4-1.1,2.1c-1.4,3.1-2.1,6.5-2.1,10.2c0,4,1,8.3,3,12.9
						c2.9,6.5,7,12,12.4,16.5c2.1,1.8,4.5,3.4,7,4.8c4.7,2.7,10.1,4.8,16.2,6.3c12.1,3.1,18.1,6.9,18.1,11.5c0,3.1-1.6,5.6-4.9,7.7
						c-2.9,1.9-5.9,2.8-9.2,2.8c-8.9,0-21.5-5.3-37.7-15.9L0,105.9c16.8,6,31,9.7,42.7,11h0c3.2,0.4,6.2,0.5,9,0.5
						c3.3,0,6.4-0.2,9.1-0.7c5.4-0.9,9.8-2.8,13.1-5.6c10.2-8.4,15.8-17.8,16.8-28v0C91.1,81.3,91.1,79.6,91,77.8L91,77.8z"/>
					
						<linearGradient id="SVGID_00000041989107118862266590000005555775923987390119_" gradientUnits="userSpaceOnUse" x1="125.975" y1="82.18" x2="125.975" y2="199.36" gradientTransform="matrix(1 0 0 -1 0 202)">
						<stop  offset="0" style="stop-color:#00EFF1"/>
						<stop  offset="1" style="stop-color:#0098FF"/>
					</linearGradient>
					<path style="fill:url(#SVGID_00000041989107118862266590000005555775923987390119_);" d="M158.8,26.4c-0.7-1.6-1.4-3-2.2-4.4
						c-0.7-1.2-1.5-2.4-2.3-3.5c-3-4.1-6.8-7.4-11.3-9.9c-4.8-2.7-10.5-4.4-16.9-5.3c-3-0.4-6.2-0.6-9.6-0.6c-7.1,0-15,0.9-23.6,2.6
						L91.7,59v0l-0.5,23.7L90.4,119l7.4,0.2l1.5,0.1h0l16,0.5l0.8-22.6l0.1-1.9v0l0.7-21.5c5.3-1.5,10.2-3.1,14.5-4.9
						c1.1-0.4,2.2-0.9,3.2-1.3c17.9-7.8,26.8-17.5,26.8-29.3C161.5,34.6,160.6,30.6,158.8,26.4L158.8,26.4z M118.5,48l0-0.8v0
						l0.7-21.1c4.7,1.1,8.4,2.2,11.1,3.5c3.6,1.7,5.6,3.7,5.7,5.8C136.4,39.2,130.5,43.4,118.5,48z"/>
					
						<linearGradient id="SVGID_00000016794563479293188660000008623270452278459049_" gradientUnits="userSpaceOnUse" x1="206.125" y1="85.42" x2="206.125" y2="200.94" gradientTransform="matrix(1 0 0 -1 0 202)">
						<stop  offset="0" style="stop-color:#00EFF1"/>
						<stop  offset="1" style="stop-color:#0098FF"/>
					</linearGradient>
					<path style="fill:url(#SVGID_00000016794563479293188660000008623270452278459049_);" d="M238.3,67l-5.4-17l-12-38.2l-1-3.2
						l-2.3-7.5h-24.8L179,49.8v0l-4.5,15.9l-13.3,47.1l25.1,3.9l8.9-38.2H215l0.3,1.3l3,13v0l5,21.6l27.5-7L238.3,67L238.3,67z
						 M199.5,60.2l5.6-24l5.6,23.5C210.6,59.8,199.5,60.3,199.5,60.2z"/>
					
						<linearGradient id="SVGID_00000135652095220428349500000007738185768448307120_" gradientUnits="userSpaceOnUse" x1="295.575" y1="85.3846" x2="295.575" y2="198.78" gradientTransform="matrix(1 0 0 -1 0 202)">
						<stop  offset="0" style="stop-color:#00EFF1"/>
						<stop  offset="1" style="stop-color:#0098FF"/>
					</linearGradient>
					<path style="fill:url(#SVGID_00000135652095220428349500000007738185768448307120_);" d="M311.9,76.7
						c-4.1,8.3-8.9,12.5-14.3,12.5c-2.5,0-5.3-1-8.2-2.9c-8.1-5.3-12.1-13.6-12.1-24.7c0-1.1,0.1-2.5,0.2-4.1
						c1-13.3,6.8-20.3,17.2-21.1c10.4-0.8,16.4,4.7,18,16.3l25.7-2.6c-4.2-27.6-14.6-42.9-31.2-46c-0.5-0.1-1-0.2-1.6-0.2
						c-1.5-0.2-3-0.4-4.6-0.5c-1.4-0.1-2.8-0.1-4.3-0.1c-1.9,0-3.8,0.1-5.6,0.3h0c-3.6,0.3-7,1.1-10.2,2.1
						c-7.1,2.4-13,6.5-17.8,12.4c-4,4.9-6.8,10.5-8.7,17c-0.3,0.8-0.5,1.7-0.7,2.6v0c-1.2,5-1.8,10.4-1.8,16.2
						c0,2.2,0.1,4.7,0.3,7.3v0c0.1,0.8,0.1,1.6,0.2,2.4c0.1,1,0.2,2,0.3,3c1.3,11.2,3,19.5,4.9,25c3.6,10.1,9.6,17.1,17.8,21
						c4.5,2.2,14.2,3.5,29.1,4c14.9,0.5,26.4-12.1,34.6-37.9L311.9,76.7L311.9,76.7z"/>
					
						<linearGradient id="SVGID_00000110431251740925566550000002331229799391709844_" gradientUnits="userSpaceOnUse" x1="377.4" y1="83.76" x2="377.4" y2="202" gradientTransform="matrix(1 0 0 -1 0 202)">
						<stop  offset="0" style="stop-color:#00EFF1"/>
						<stop  offset="1" style="stop-color:#0098FF"/>
					</linearGradient>
					<path style="fill:url(#SVGID_00000110431251740925566550000002331229799391709844_);" d="M368.4,87.8V72.2l27.1,0.6l10.3,0.2
						l0.7-20.8v0l0.1-4.1h-38.2V31.5l26,0.5h0l18.9,0.3l-0.1-31.5l-1.3,0l-35.2-0.4l-4.2-0.1L344,0l-1,46.1l-0.1,6.2l-1.1,50v0
						l-0.3,14.9l21.5,0.3l45.9,0.7l0.7-30.4L368.4,87.8L368.4,87.8z"/>
				</g>
				<g>
					<path class="st10" d="M59.9,89.9c-2.9,1.9-5.9,2.8-9.2,2.8c-8.9,0-21.5-5.3-37.7-15.9L0,106c0,0,0.1,0,0.1,0l12.3-27.6
						C28.7,89,41.2,94.3,50.1,94.3c3.3,0,6.3-0.9,9.2-2.8c2.6-1.6,4.1-3.6,4.7-5.8C63.2,87.2,61.8,88.7,59.9,89.9L59.9,89.9z
						 M53.5,0.4C42,0.4,32.2,2.5,23.9,6.6c-7.7,3.9-12.5,9.1-14.6,15.6c2.3-5.9,7-10.6,14.1-14.1C31.6,4,41.5,1.9,53,1.9
						c10.2,0,22.1,1.3,35.8,4l-8.8,26.2h0l9.3-27.7C75.6,1.7,63.7,0.4,53.5,0.4L53.5,0.4z M90.8,75.3C90.1,69,87.4,63.9,83,60
						c-3.3-2.9-8.9-6-16.8-9.1c-9.1-3.6-15.3-6.4-18.6-8.5c-4.6-2.9-6.9-5.7-6.9-8.4c0-0.4,0-0.8,0.1-1.2c-0.4,0.8-0.6,1.8-0.6,2.7
						c0,2.7,2.3,5.5,6.9,8.4c3.2,2.1,9.4,4.9,18.6,8.5c7.9,3.1,13.5,6.2,16.8,9.1c5,4.4,7.7,10.4,8,17.8c0.2,4.2-0.3,8.3-1.6,12.3
						c0.8-2.2,1.4-4.4,1.8-6.6c0.4-2.3,0.5-4.7,0.4-7.2C91,77,90.9,76.1,90.8,75.3L90.8,75.3z"/>
					<path class="st10" d="M161.5,38.3c0-3.7-0.9-7.7-2.7-11.9c-6.8-15.8-21-23.7-42.4-23.7c-7.1,0-15,0.9-23.6,2.6l0,1.4
						c8.5-1.7,16.2-2.5,23.1-2.5c21.4,0,35.5,7.9,42.4,23.7c1.8,4.2,2.7,8.2,2.7,11.9c0,2.3-0.3,4.5-1,6.6
						C161,43.8,161.5,41.1,161.5,38.3L161.5,38.3z M118.5,47.9l0.7-20.2c-0.1,0-0.3-0.1-0.5-0.1L118,49.5c11.2-4.2,17-8.2,17.5-11.7
						C133.8,40.9,128.1,44.3,118.5,47.9L118.5,47.9z M116.4,75.3l-1.5,44.5l0.5,0l1.5-44.6C116.8,75.2,116.6,75.3,116.4,75.3
						L116.4,75.3z"/>
					<path class="st10" d="M209.7,59.8l-10.2,0.5l5.1-22.1l-0.1-0.4l-5.6,24l11.1-0.5L209.7,59.8z M217.6,1.1h-24.8l-0.4,1.5H217
						l33,104.9l0.9-0.2L217.6,1.1L217.6,1.1z"/>
					<path class="st10" d="M339.2,78.7l-27.3-2c-4.1,8.3-8.9,12.5-14.3,12.5c-2.5,0-5.3-1-8.2-2.9c-8.1-5.3-12.1-13.6-12.1-24.7
						c0-1.1,0.1-2.5,0.2-4.1c0.2-3.2,0.8-6,1.5-8.4c-1.1,2.8-1.8,6.1-2.1,9.9c-0.1,1.6-0.2,3-0.2,4.1c0,11.2,4,19.4,12.1,24.7
						c2.9,1.9,5.6,2.9,8.2,2.9c5.4,0,10.2-4.2,14.3-12.5l27.3,1.9c-0.3,1.1-0.7,2.1-1,3.1C338.2,81.8,338.7,80.3,339.2,78.7
						L339.2,78.7z M305.5,3.8c-2.9-0.4-5.8-0.6-8.9-0.6c-14.4,0-25.6,4.9-33.6,14.8c-3.4,4.2-6,9-7.9,14.4c1.8-4.8,4.2-9,7.3-12.9
						c8-9.9,19.2-14.8,33.6-14.8c3,0,6,0.2,8.9,0.6c17.3,2.4,28.1,17.3,32.6,44.8l0.8-0.1C334,21.6,323.1,6.2,305.5,3.8L305.5,3.8z"
						/>
					<path class="st10" d="M413.2,0.9L344,0l0,1.5l68.7,0.9l0.1,29.9l0.5,0L413.2,0.9L413.2,0.9z M368.4,87.8V73.7l-0.5,0v15.6H409
						l-0.7,28.9h0.5l0.7-30.4L368.4,87.8L368.4,87.8z M368.4,48V33.1l-0.5,0v16.4h38.2l-0.7,23.5l0.5,0l0.8-25L368.4,48L368.4,48z"
						/>
				</g>
				<path class="st10" d="M90.8,75.3L90.6,85c0.4-2.3,0.5-4.7,0.4-7.2C91,77,90.9,76.1,90.8,75.3L90.8,75.3z"/>
				<g>
					<g>
						
							<linearGradient id="SVGID_00000008855441002619764610000011037960377924127673_" gradientUnits="userSpaceOnUse" x1="77.26" y1="3.73" x2="77.26" y2="58.04" gradientTransform="matrix(1 0 0 -1 0 202)">
							<stop  offset="0" style="stop-color:#7067D6"/>
							<stop  offset="1" style="stop-color:#BCB7E1"/>
						</linearGradient>
						<path style="fill:url(#SVGID_00000008855441002619764610000011037960377924127673_);" d="M73.1,173.7l-3.4,14.7l-8,9.9
							L60,186.9l4-34.4l8.1-8.5h9.5l12.8,40.9l-6.6,9.7l-3.9-7l-3.2-13.8H73.1L73.1,173.7z M79,166.5l-2.9-8.2l-1.3,8.4L79,166.5z"
							/>
						
							<linearGradient id="SVGID_00000059310093426720899290000018304565727505949842_" gradientUnits="userSpaceOnUse" x1="106.58" y1="5.13" x2="106.58" y2="61.36" gradientTransform="matrix(1 0 0 -1 0 202)">
							<stop  offset="0" style="stop-color:#7067D6"/>
							<stop  offset="1" style="stop-color:#BCB7E1"/>
						</linearGradient>
						<path style="fill:url(#SVGID_00000059310093426720899290000018304565727505949842_);" d="M92.5,196.9l1.2-48.9l6.3-7.4
							c11.7,3.4,18.3,7.6,19.8,12.6c0.5,1.8,0.8,3.6,0.8,5.4c0,3.3-0.9,6.7-2.6,10.1C115.4,174,112.7,185.3,92.5,196.9L92.5,196.9z
							 M107.5,154.8l-1.9,13.8c4.6-2.6,7-5.1,7.1-7.5C112.7,158.7,111,156.6,107.5,154.8L107.5,154.8z"/>
						
							<linearGradient id="SVGID_00000083808572416341059530000013225835182084881299_" gradientUnits="userSpaceOnUse" x1="136.27" y1="3.73" x2="136.27" y2="57.14" gradientTransform="matrix(1 0 0 -1 0 202)">
							<stop  offset="0" style="stop-color:#7067D6"/>
							<stop  offset="1" style="stop-color:#BCB7E1"/>
						</linearGradient>
						<path style="fill:url(#SVGID_00000083808572416341059530000013225835182084881299_);" d="M133.2,144.9l5.6,24.3l3.4-16.7
							l3.9-7.6l10.2,0.6l-13.2,42.9c0.1,0.6-4,9.9-4,9.9c-1.5,0-6.5-10.7-8.1-10.5l-14.7-32l5.2-7.8L133.2,144.9L133.2,144.9z"/>
						
							<linearGradient id="SVGID_00000131347551970089542960000007527414115178810795_" gradientUnits="userSpaceOnUse" x1="170.1" y1="3.05" x2="170.1" y2="58.45" gradientTransform="matrix(1 0 0 -1 0 202)">
							<stop  offset="0" style="stop-color:#7067D6"/>
							<stop  offset="1" style="stop-color:#BCB7E1"/>
						</linearGradient>
						<path style="fill:url(#SVGID_00000131347551970089542960000007527414115178810795_);" d="M185,143.9l0,12.1l-1.8,8.2
							l-15.4-8.5v6.3h14.7l-0.3,9.6l-2,9l-12.4-9.3v6h15.8l-0.3,11.7l-1.9,9.9l-24-10.3l-2.3-37.6l3.2-7.5L185,143.9L185,143.9z"/>
						
							<linearGradient id="SVGID_00000179647599686517630420000006996114328637072315_" gradientUnits="userSpaceOnUse" x1="199.91" y1="3.4" x2="199.91" y2="55.07" gradientTransform="matrix(1 0 0 -1 0 202)">
							<stop  offset="0" style="stop-color:#7067D6"/>
							<stop  offset="1" style="stop-color:#BCB7E1"/>
						</linearGradient>
						<path style="fill:url(#SVGID_00000179647599686517630420000006996114328637072315_);" d="M197.3,148.5l8,19.5
							c-0.6-3.8-1.7-6.8-1.7-13.3c0-1.8,0.7-5.8,0.8-7.7l10.2,0.3c-0.4,4.9-0.6,10-0.6,15.2c0,8.4,0.3,27,1.3,36.2l-9.7-9.6
							l-10.2-21.4c0,1,0,2,0,3c0,5.3,0.4,11.1,1.3,17.4l-1.2,9.9l-8.7-9.9c-0.4-9.8-2.3-22.5-2.3-32.1l1.8-7.8L197.3,148.5
							L197.3,148.5z"/>
						
							<linearGradient id="SVGID_00000053516031745223973560000005788240796134491028_" gradientUnits="userSpaceOnUse" x1="236.06" y1="2.7" x2="236.06" y2="56.88" gradientTransform="matrix(1 0 0 -1 0 202)">
							<stop  offset="0" style="stop-color:#7067D6"/>
							<stop  offset="1" style="stop-color:#BCB7E1"/>
						</linearGradient>
						<path style="fill:url(#SVGID_00000053516031745223973560000005788240796134491028_);" d="M216,156.1l0.2-7.8
							c13.8-1.4,26.5-2.4,38.1-3.2l1.9,7.6l-15,2.8l-8.6,43.8l-0.7-9.9l-0.6-33.2L216,156.1L216,156.1z"/>
						
							<linearGradient id="SVGID_00000170974751864987856520000011481632040429031580_" gradientUnits="userSpaceOnUse" x1="253.75" y1="171.6177" x2="287.0501" y2="171.6177">
							<stop  offset="0" style="stop-color:#7067D6"/>
							<stop  offset="1" style="stop-color:#BCB7E1"/>
						</linearGradient>
						<path style="fill:url(#SVGID_00000170974751864987856520000011481632040429031580_);" d="M255.1,169.2l-1.3-21.3l10.5-0.6
							l2.4,7.7l-2.9,16.6c2.4,3.6,4.4,5.4,5.9,5.4c2.8,0,4.1-6.4,4.1-19.1c0-3.4-0.1-7.2-0.3-11.6l10.1,0.3c0,0,3.4,6,3.4,7.7
							c0,16.1-4.6,24.3-6.9,29.3c-1.9,4.1-4.8,6.1-8.8,6.1c-1.4,0-4.7,7.6-6.4,7.1C257.9,194.7,255.7,180.2,255.1,169.2L255.1,169.2
							z"/>
						
							<linearGradient id="SVGID_00000084487637284496292860000005590529674285708179_" gradientUnits="userSpaceOnUse" x1="304" y1="1.63" x2="304" y2="60.22" gradientTransform="matrix(1 0 0 -1 0 202)">
							<stop  offset="0" style="stop-color:#7067D6"/>
							<stop  offset="1" style="stop-color:#BCB7E1"/>
						</linearGradient>
						<path style="fill:url(#SVGID_00000084487637284496292860000005590529674285708179_);" d="M287.8,141.8
							c9.7,0,16.8,2.7,21.4,8.1c1.8,2.1,7.2,8,7.5,14c0.3,4.4-7.9,2-14.1,7.3l16.1,19.1l5.3,10l-18.8-10.2l-10.1-12V190l-7.7,9.2
							l-3.4-9.9l0.6-47.4C285.7,141.8,286.8,141.8,287.8,141.8L287.8,141.8z M302.1,157.2c0-2.8-2.3-4.6-6.9-5.3v12
							C299.7,161.7,302.1,159.5,302.1,157.2L302.1,157.2z"/>
						
							<linearGradient id="SVGID_00000034051453159910787320000013313971661005507491_" gradientUnits="userSpaceOnUse" x1="332.28" y1="3.45" x2="332.28" y2="58.46" gradientTransform="matrix(1 0 0 -1 0 202)">
							<stop  offset="0" style="stop-color:#7067D6"/>
							<stop  offset="1" style="stop-color:#BCB7E1"/>
						</linearGradient>
						<path style="fill:url(#SVGID_00000034051453159910787320000013313971661005507491_);" d="M342.8,143.9l6.6,7.5l-6.5,4.6
							l-17.3-0.3v6.3h14.7l6.4,8.5l-21.1,0.8v6h15.8l6.5,9.3l-27.6,11.9l-5.1-9.9l1-45.1L342.8,143.9L342.8,143.9z"/>
					</g>
					<g>
						
							<radialGradient id="SVGID_00000064312609177975996500000004504300835774867114_" cx="205.55" cy="22.56" r="189.46" gradientTransform="matrix(1 0 0 -1 0 202)" gradientUnits="userSpaceOnUse">
							<stop  offset="0" style="stop-color:#FAFAFD"/>
							<stop  offset="1" style="stop-color:#C3BFEE"/>
						</radialGradient>
						<path style="fill:url(#SVGID_00000064312609177975996500000004504300835774867114_);" d="M65.3,182.8l-3.6,15.5l-10.2-1.6
							l12.7-45.2h10l13.5,43l-11.1,2.9l-3.4-14.6L65.3,182.8L65.3,182.8z M71.5,175.3l-2.2-9.5l-2.2,9.7L71.5,175.3L71.5,175.3z"/>
						
							<radialGradient id="SVGID_00000067958825039420630330000000236412236915782298_" cx="205.55" cy="22.56" r="189.46" gradientTransform="matrix(1 0 0 -1 0 202)" gradientUnits="userSpaceOnUse">
							<stop  offset="0" style="stop-color:#FAFAFD"/>
							<stop  offset="1" style="stop-color:#C3BFEE"/>
						</radialGradient>
						<path style="fill:url(#SVGID_00000067958825039420630330000000236412236915782298_);" d="M86.9,200.8l6.8-52.8
							c12.3,3.6,19.2,8,20.8,13.3c0.6,1.9,0.8,3.7,0.8,5.7c0,3.5-0.9,7-2.7,10.6C109.8,183.2,101.2,190.9,86.9,200.8z M101.5,162.9
							l-2,14.6c4.9-2.7,7.4-5.4,7.4-7.9S105.2,164.8,101.5,162.9L101.5,162.9z"/>
						
							<radialGradient id="SVGID_00000022545620604205300470000015984790394341070214_" cx="205.55" cy="22.56" r="189.46" gradientTransform="matrix(1 0 0 -1 0 202)" gradientUnits="userSpaceOnUse">
							<stop  offset="0" style="stop-color:#FAFAFD"/>
							<stop  offset="1" style="stop-color:#C3BFEE"/>
						</radialGradient>
						<path style="fill:url(#SVGID_00000022545620604205300470000015984790394341070214_);" d="M128.6,152.4l5.9,25.6l7.7-25.6
							l10.8,0.6l-13.9,45.2c-2.6-0.7-5.3-1-8-1c-1.6,0-3.1,0.1-4.8,0.3l-10-41.8L128.6,152.4L128.6,152.4z"/>
						
							<radialGradient id="SVGID_00000115497656771116199610000017793184595106576778_" cx="205.55" cy="22.56" r="189.46" gradientTransform="matrix(1 0 0 -1 0 202)" gradientUnits="userSpaceOnUse">
							<stop  offset="0" style="stop-color:#FAFAFD"/>
							<stop  offset="1" style="stop-color:#C3BFEE"/>
						</radialGradient>
						<path style="fill:url(#SVGID_00000115497656771116199610000017793184595106576778_);" d="M183.2,151.4l0,12.7l-18.2-0.3v6.6
							h15.5l-0.3,10.1l-15.1-0.3v6.3h16.6l-0.3,12.3l-27.3-0.4l1-47.5L183.2,151.4L183.2,151.4z"/>
						
							<radialGradient id="SVGID_00000152952529450357033670000013466984887669493667_" cx="205.55" cy="22.56" r="189.46" gradientTransform="matrix(1 0 0 -1 0 202)" gradientUnits="userSpaceOnUse">
							<stop  offset="0" style="stop-color:#FAFAFD"/>
							<stop  offset="1" style="stop-color:#C3BFEE"/>
						</radialGradient>
						<path style="fill:url(#SVGID_00000152952529450357033670000013466984887669493667_);" d="M196.1,156.2l8.5,20.5
							c-0.7-4-1-9.4-1-16.2c0-1.9,0-3.8,0.1-5.9l10.8,0.4c-0.4,5.2-0.6,10.5-0.6,16c0,8.8,0.5,18,1.6,27.6l-10.4,0.4l-10.8-22.5
							c0,1.1,0,2.1,0,3.2c0,5.6,0.5,11.7,1.3,18.3H185c-0.5-10.3-0.7-20.5-0.7-30.6c0-3.8,0-7.6,0.1-11.4L196.1,156.2L196.1,156.2z"
							/>
						
							<radialGradient id="SVGID_00000047760910996071856690000012372774306449664424_" cx="205.55" cy="22.56" r="189.46" gradientTransform="matrix(1 0 0 -1 0 202)" gradientUnits="userSpaceOnUse">
							<stop  offset="0" style="stop-color:#FAFAFD"/>
							<stop  offset="1" style="stop-color:#C3BFEE"/>
						</radialGradient>
						<path style="fill:url(#SVGID_00000047760910996071856690000012372774306449664424_);" d="M216.6,166.7l-0.6-10.6
							c14.5-1.4,27.9-2.5,40.1-3.4l-0.3,10.4l-13.5,0.6l0.6,36.9l-10.4-1.2l-0.6-35L216.6,166.7L216.6,166.7z"/>
						
							<radialGradient id="SVGID_00000043426086781885090380000006760162094004820386_" cx="271.3369" cy="176.87" r="19.6498" gradientUnits="userSpaceOnUse">
							<stop  offset="0" style="stop-color:#FAFAFD"/>
							<stop  offset="1" style="stop-color:#C3BFEE"/>
						</radialGradient>
						<path style="fill:url(#SVGID_00000043426086781885090380000006760162094004820386_);" d="M257,178.1l-1.4-22.5l11.1-0.6
							l-0.5,25.6c2.5,3.8,4.6,5.7,6.2,5.7c2.9,0,4.4-6.7,4.4-20.1c0-3.5-0.1-7.6-0.3-12.2l10.7,0.4c0.3,20.1-1,33.1-3.7,39
							c-2,4.3-5.1,6.4-9.2,6.4c-1.5,0-3.1-0.3-4.9-0.8C261.8,196.6,257.7,189.6,257,178.1L257,178.1z"/>
						
							<radialGradient id="SVGID_00000003825835143460613780000001219102161021308068_" cx="205.55" cy="22.56" r="189.46" gradientTransform="matrix(1 0 0 -1 0 202)" gradientUnits="userSpaceOnUse">
							<stop  offset="0" style="stop-color:#FAFAFD"/>
							<stop  offset="1" style="stop-color:#C3BFEE"/>
						</radialGradient>
						<path style="fill:url(#SVGID_00000003825835143460613780000001219102161021308068_);" d="M291.4,149.2
							c10.2,0,17.7,2.9,22.5,8.6c1.9,2.2,2.8,4.6,2.8,7.1c0,4.7-3.2,9.8-9.7,15.4l16.9,20.1l-14.2-0.2l-10.6-12.6V200l-11.7-0.8
							l0.7-50C289.2,149.2,290.3,149.2,291.4,149.2z M306.4,165.4c0-2.9-2.4-4.8-7.3-5.5v12.6C304,170.2,306.4,167.8,306.4,165.4
							L306.4,165.4z"/>
						
							<radialGradient id="SVGID_00000085954819553599027500000009626546124539787952_" cx="205.55" cy="22.56" r="189.46" gradientTransform="matrix(1 0 0 -1 0 202)" gradientUnits="userSpaceOnUse">
							<stop  offset="0" style="stop-color:#FAFAFD"/>
							<stop  offset="1" style="stop-color:#C3BFEE"/>
						</radialGradient>
						<path style="fill:url(#SVGID_00000085954819553599027500000009626546124539787952_);" d="M349.4,151.4l0,12.7l-18.2-0.3v6.6
							h15.5l-0.3,10.1l-15.1-0.3v6.3h16.6l-0.3,12.3l-27.3-0.4l1-47.5L349.4,151.4L349.4,151.4z"/>
					</g>
					<g>
						<path class="st29" d="M87.8,195.2l-0.1-0.3l-0.1,0.6l0.1,0l0.1,0L87.8,195.2L87.8,195.2z"/>
						<path class="st29" d="M87.8,195.2l0,0.3l0.1,0L87.8,195.2L87.8,195.2z"/>
						<path class="st29" d="M203.6,163c0,5.3,0.3,9.7,0.8,13.2l0.2,0.5C204,173.2,203.7,168.7,203.6,163L203.6,163z M214.3,155.9
							c-0.4,4.9-0.6,9.9-0.6,15.1v0.5C213.8,166.1,214,160.9,214.3,155.9L214.3,155.9L214.3,155.9z"/>
						<path class="st29" d="M256.1,153.6l0,1.9l-0.5,0l0,0.9h0l0.3,5l0,0.3v-0.6l0.1-4.7l0-0.9L256.1,153.6L256.1,153.6L256.1,153.6
							z"/>
						<path class="st29" d="M276.4,154.9L276.4,154.9c0.1,4.2,0.2,8,0.3,11.3C276.7,162.9,276.6,159.1,276.4,154.9z M266.6,155.9
							l-0.5,24.7c0,0,0,0,0,0L266.6,155.9L266.6,155.9L266.6,155.9z M256,156.5l-0.4,0h0l0.3,5l0,0.3v-0.6L256,156.5L256,156.5
							L256,156.5z"/>
						<path class="st29" d="M322.5,199.5l-0.8-0.9l-1.3-1.6l0,0l0,1.6l0-1.6L322.5,199.5z"/>
						<path class="st29" d="M322.5,198.6l-2.1-2.5l0,0.9l0,0l2.1,2.5h0.8L322.5,198.6L322.5,198.6z"/>
					</g>
					<g>
						<path class="st29" d="M87.8,194.2l-13.4-42.7h-10l-12.7,45.2l0.2,0l12.5-44.3h10l13.3,42.2l0.1,0l0.1,0h0L87.8,194.2
							L87.8,194.2z M71.3,175.3l-4.1,0.2l-0.2,0.9l4.5-0.2L71.3,175.3L71.3,175.3z"/>
						<path class="st29" d="M114.6,161.3c-1.6-5.3-8.5-9.7-20.8-13.3l-6,46.2l0,0.3l-0.1,0.3l-0.1,0.6l-0.7,5.3c0,0,0.1-0.1,0.1-0.1
							l0.7-5.3l0.1,0l-0.1-0.3l0.1-0.6h0l5.9-45.6c12.3,3.6,19.3,8,20.8,13.3c0.5,1.6,0.8,3.4,0.8,5.1c0-0.1,0-0.2,0-0.4
							C115.4,165.1,115.1,163.2,114.6,161.3L114.6,161.3z M107,169.8c-0.3,2.4-2.7,4.9-7.3,7.5l-0.1,1c4.9-2.7,7.4-5.4,7.4-7.9
							C107,170.2,107,170,107,169.8z"/>
						<path class="st29" d="M142.2,152.4l-7.7,25.6l-5.9-25.6l-12.3,3.3l0.2,0.9l12.1-3.3l5.9,25.6l7.7-25.6l10.5,0.6l0.3-0.9
							L142.2,152.4L142.2,152.4z"/>
						<path class="st29" d="M165,170.5v0.9h15.4l0-0.9H165z M165,186.6v0.9h16.6l0-0.9H165z M155.1,151.1l-1,47.5h0l1-46.6l28,0.4
							v-0.9L155.1,151.1L155.1,151.1z"/>
						<path class="st29" d="M204.4,176.2l-8.2-20l-11.7-0.3c0,1.1,0,2.2,0,3.3l0-2.4l11.7,0.3l8.5,20.5
							C204.5,177.2,204.5,176.7,204.4,176.2L204.4,176.2z M203.7,154.6c0,1.6-0.1,3-0.1,4.5c0-1.1,0-2.3,0.1-3.5l10.7,0.4
							c0-0.3,0-0.6,0.1-0.9L203.7,154.6L203.7,154.6z M213.8,171.9c0,8.5,0.5,17.4,1.5,26.7h0.1
							C214.3,189.3,213.8,180.4,213.8,171.9L213.8,171.9z"/>
						<path class="st29" d="M216,156.1l0,0.9c14.5-1.4,27.8-2.6,40-3.4l0-0.9C243.9,153.5,230.5,154.6,216,156.1L216,156.1z
							 M255.6,155.6l0,0.9h0l0.3,5l0-0.6l0.1-4.4l0-0.9L255.6,155.6L255.6,155.6z M242.3,164.6L242.3,164.6l0.6,35.9h0L242.3,164.6z
							"/>
						<path class="st29" d="M287,154.3l-10.7-0.4c0,0.3,0,0.6,0,0.9l10.6,0.4c0,0.3,0,0.6,0,0.9C287,155.5,287,154.9,287,154.3
							L287,154.3z M256.1,155.6L256.1,155.6l-0.5,0l0,0.9l0.3,4.4v0.3l0.1-4.7l10.6-0.6V155L256.1,155.6L256.1,155.6z"/>
						<path class="st29" d="M323.2,199.5l-0.8-0.9l-2.1-2.5l0,0l-12.9-15.2c-0.1,0.1-0.3,0.3-0.5,0.4l13.3,15.8l0,0l2.1,2.5l0.7,0.9
							h0.8L323.2,199.5L323.2,199.5z M313.9,157.8c-4.8-5.7-12.3-8.6-22.5-8.6c-1.1,0-2.2,0-3.3,0.1l-0.7,50h0l0.7-49.1
							c1.1-0.1,2.2-0.1,3.3-0.1c10.2,0,17.7,2.9,22.5,8.6c1.8,2.1,2.7,4.3,2.8,6.6c0-0.1,0-0.3,0-0.4
							C316.7,162.4,315.8,160,313.9,157.8L313.9,157.8z M306.4,165.9c-0.3,2.2-2.7,4.5-7.3,6.7v0.9c4.9-2.3,7.3-4.7,7.3-7.1
							C306.5,166.2,306.4,166.1,306.4,165.9L306.4,165.9z"/>
						<path class="st29" d="M349.4,152.3v-0.9l-28-0.4l-1,45v0.9h0l1.3,1.6h0.8l-2.1-2.5l1-44.1L349.4,152.3L349.4,152.3z
							 M331.2,186.6v0.9h16.6l0-0.9H331.2L331.2,186.6z M331.2,170.5v0.9h15.4l0-0.9H331.2z"/>
					</g>
				</g>
				<g>
					<path class="st30" d="M47.6,42.4c1.3,0.8,3,1.8,5.2,2.8c-7.5,7.2-15.1,13.6-22.3,19.2c-2.5-1.4-4.9-3-7-4.8
						c8.1-6,15.3-12.4,21.8-18.8C46,41.3,46.8,41.8,47.6,42.4L47.6,42.4z"/>
					<path class="st30" d="M84.7,3.6c-4.3,8.6-9.8,16.6-15.9,24.2c-3.5-1.1-6.6-1.9-9.5-2.3C67.2,16.2,73,7.9,76.6,2.2
						C79.3,2.6,82,3.1,84.7,3.6L84.7,3.6z"/>
					<path class="st30" d="M54.3,0.4C51.6,5,46.2,10.8,35.7,16.3c-10.1,5.2-19,5.2-25.6,3.8c0.3-0.7,0.7-1.5,1.1-2.1
						c5.3,0.1,12.2-0.7,20.8-3.8c11-4,17.2-9.3,20.7-13.7L54.3,0.4L54.3,0.4z"/>
					<path class="st30" d="M91,77.8c0.1,1.8,0,3.6-0.2,5.3v0c-11.2,13.4-21.7,25-30,33.6c-2.8,0.5-5.8,0.7-9.1,0.7
						c-2.8,0-5.8-0.2-9-0.5C59,102.1,74.3,83.4,87.4,65.1C89.6,68.7,90.8,72.9,91,77.8L91,77.8z"/>
					<path class="st30" d="M142.9,8.5c-3.9,7.1-8.1,14.2-12.5,21.1c-2.7-1.3-6.4-2.5-11.1-3.5l-0.7,21.1v0
						c-9,12.8-18.4,24.8-27.4,35.6l0.5-23.7v0c15.9-22.9,28.1-44.3,34.4-55.8C132.5,4.1,138.1,5.8,142.9,8.5z"/>
					<path class="st30" d="M116.2,95.3l-0.1,1.9c-7,10.1-12.9,17.5-16.8,22.1h0l-1.5-0.1C104.3,112.4,110.5,104.2,116.2,95.3
						L116.2,95.3z"/>
					<path class="st30" d="M156.5,21.9c-6.8,17.1-14.4,32.5-21.8,45.7c-1,0.4-2.1,0.9-3.2,1.3c10.5-20,18.5-39.5,22.8-50.5
						C155.1,19.5,155.8,20.7,156.5,21.9z"/>
					<path class="st30" d="M220.9,11.8c-8.9,12.1-27,35.6-46.4,53.9l4.5-15.8v0c9.4-7.3,27.8-22.8,40.9-41.2
						C219.9,8.5,220.9,11.8,220.9,11.8z"/>
					<path class="st30" d="M238.3,67c-5.1,8.8-14.4,19.7-19.9,25.8l-3-13c8-11.6,14.2-23.2,17.6-29.8L238.3,67L238.3,67z"/>
					<path class="st30" d="M307.1,4.1c-8.4,13.8-27.5,41.9-54.2,62.6c-0.1-1-0.2-1.9-0.3-3c-0.1-0.8-0.2-1.6-0.2-2.4v0
						c9.6-7.4,29.6-25.4,48.6-57.9c1.6,0.1,3.1,0.2,4.6,0.5C306.1,3.9,306.6,4,307.1,4.1L307.1,4.1z"/>
					<path class="st30" d="M291,3.5c-2.1,3.1-4.6,6.5-7.6,10.3c-9.9,12-22,19.9-29.7,23.9c0.2-0.9,0.4-1.7,0.7-2.6
						c10.7-8.6,19.7-19.7,26.5-29.4C284,4.6,287.4,3.8,291,3.5L291,3.5z"/>
					<path class="st30" d="M406.6,47.9l-0.1,4.1v0c-3.4,6.8-7,13.8-11,20.6l-27.1-0.6v15.6h18c-7.3,11.2-15.2,21.6-23.5,29.8
						l-21.5-0.3l0.3-14.9v0C352.6,89.8,368.7,70.2,384,48L406.6,47.9L406.6,47.9z"/>
					<path class="st30" d="M413.3,32.3L394.5,32c6.4-10.2,12.4-20.7,17.5-31.1l1.3,0L413.3,32.3L413.3,32.3z"/>
					<path class="st30" d="M376.7,0.4c-6.6,11.4-21.6,36.5-33.8,51.9l0.1-6.2c6.3-8,20.1-26.4,29.5-45.7
						C372.5,0.4,376.7,0.4,376.7,0.4z"/>
				</g>
				<polygon class="st31" points="117,73.8 116.3,92.8 128.8,85 129.3,71.9 				"/>
				<polygon class="st31" points="338.3,50.1 323.9,65.6 324.2,51.5 				"/>
				
					<linearGradient id="SVGID_00000015348530147781112450000017065954883440709281_" gradientUnits="userSpaceOnUse" x1="431.14" y1="102.07" x2="454.23" y2="102.07" gradientTransform="matrix(1 0 0 -1 0 202)">
					<stop  offset="0" style="stop-color:#070019"/>
					<stop  offset="1" style="stop-color:#1D6DAE"/>
				</linearGradient>
				
					<path style="opacity:0.2;fill:url(#SVGID_00000015348530147781112450000017065954883440709281_);enable-background:new    ;" d="
					M431.1,97.5c1.7,0.2,12.6,1.8,23.1,4.8C442.4,99.6,432.7,97.8,431.1,97.5z"/>
			</g>
		</g>
	</g>
</g>
</svg>
