<?xml version="1.0" encoding="UTF-8"?><svg xmlns="http://www.w3.org/2000/svg" xmlns:xlink="http://www.w3.org/1999/xlink" viewBox="0 0 241.6 115.59"><defs><style>.x{fill:url(#e);}.y{fill:url(#d);}.a`{fill:url(#g);}.aa{fill:url(#f);}.ab{fill:url(#h);}.ac{fill:#fff;}.ad{fill:#ffffab;}.ae{fill:#ced6ff;mix-blend-mode:multiply;}.af{fill:url(#t);}.af,.ag,.ah,.ai,.aj,.ak,.al,.am,.an,.ao,.ap,.aq,.ar,.as,.at{mix-blend-mode:screen;}.ag{fill:url(#v);}.ah{fill:url(#u);}.ai{fill:url(#k);}.aj{fill:url(#m);}.ak{fill:url(#j);}.al{fill:url(#i);}.am{fill:url(#q);}.an{fill:url(#s);}.ao{fill:url(#r);}.ap{fill:url(#p);}.aq{fill:url(#o);}.ar{fill:url(#l);}.as{fill:url(#n);}.at{fill:url(#w);}.au{isolation:isolate;}</style><linearGradient id="d" x1="120.8" y1="115.59" x2="120.8" y2="3.64" gradientTransform="matrix(1, 0, 0, 1, 0, 0)" gradientUnits="userSpaceOnUse"><stop offset="0" stop-color="#8b9ad1"/><stop offset="1" stop-color="#cee0ff"/></linearGradient><linearGradient id="e" x1="120.8" y1="111.96" x2="120.8" y2="0" gradientTransform="matrix(1, 0, 0, 1, 0, 0)" gradientUnits="userSpaceOnUse"><stop offset="0" stop-color="#cadcff"/><stop offset="1" stop-color="#fff"/></linearGradient><radialGradient id="f" cx="122.28" cy="97.47" fx="122.28" fy="97.47" r="86.28" gradientTransform="matrix(1, 0, 0, 1, 0, 0)" gradientUnits="userSpaceOnUse"><stop offset="0" stop-color="#ffbd00"/><stop offset="1" stop-color="#ff772c"/></radialGradient><linearGradient id="g" x1="118.67" y1="99.26" x2="118.67" y2="6.86" gradientTransform="matrix(1, 0, 0, 1, 0, 0)" gradientUnits="userSpaceOnUse"><stop offset="0" stop-color="#fff300"/><stop offset="1" stop-color="#ff9700"/></linearGradient><linearGradient id="h" x1="118.67" y1="97.52" x2="118.67" y2="7.86" gradientTransform="matrix(1, 0, 0, 1, 0, 0)" gradientUnits="userSpaceOnUse"><stop offset="0" stop-color="#fc0"/><stop offset="1" stop-color="#ff9700"/></linearGradient><linearGradient id="i" x1="22.95" y1="25.87" x2="224.37" y2="25.87" gradientTransform="matrix(1, 0, 0, 1, 0, 0)" gradientUnits="userSpaceOnUse"><stop offset="0" stop-color="#ff9840"/><stop offset=".1" stop-color="#ee8e3b"/><stop offset=".29" stop-color="#c47531"/><stop offset=".55" stop-color="#804c20"/><stop offset=".88" stop-color="#241509"/><stop offset="1" stop-color="#000"/></linearGradient><linearGradient id="j" x1="-311.86" y1="86.43" x2="-119.84" y2="86.43" gradientTransform="translate(-96.57) rotate(-180) scale(1 -1)" gradientUnits="userSpaceOnUse"><stop offset="0" stop-color="#ff6140"/><stop offset=".1" stop-color="#ee5a3b"/><stop offset=".29" stop-color="#c44a31"/><stop offset=".55" stop-color="#803020"/><stop offset=".88" stop-color="#240d09"/><stop offset="1" stop-color="#000"/></linearGradient><radialGradient id="k" cx="109.48" cy="-586.47" fx="109.48" fy="-586.47" r="2.66" gradientTransform="translate(633.15 113.24) rotate(-93.42)" gradientUnits="userSpaceOnUse"><stop offset="0" stop-color="#00b359"/><stop offset=".13" stop-color="#009148"/><stop offset=".34" stop-color="#005d2e"/><stop offset=".54" stop-color="#00351a"/><stop offset=".73" stop-color="#00170b"/><stop offset=".89" stop-color="#000603"/><stop offset="1" stop-color="#000"/></radialGradient><radialGradient id="l" cx="120.66" cy="-582.18" fx="120.66" fy="-582.18" r="2.66" xlink:href="#k"/><radialGradient id="m" cx="88.08" cy="-586.26" fx="88.08" fy="-586.26" r="2.66" xlink:href="#k"/><radialGradient id="n" cx="122.59" cy="-596.46" fx="122.59" fy="-596.46" r="7.45" xlink:href="#k"/><radialGradient id="o" cx="59.65" cy="-447.14" fx="59.65" fy="-447.14" r="7.45" xlink:href="#k"/><radialGradient id="p" cx="64.81" cy="-408.57" fx="64.81" fy="-408.57" r="3.56" xlink:href="#k"/><radialGradient id="q" cx="68.48" cy="-578.64" fx="68.48" fy="-578.64" r="3.56" xlink:href="#k"/><radialGradient id="r" cx="77.43" cy="-475.95" fx="77.43" fy="-475.95" r="1.78" xlink:href="#k"/><radialGradient id="s" cx="62.76" cy="-610.72" fx="62.76" fy="-610.72" r="1.78" xlink:href="#k"/><radialGradient id="t" cx="90.25" cy="-559.03" fx="90.25" fy="-559.03" r="1.78" xlink:href="#k"/><radialGradient id="u" cx="64.32" cy="-585.32" fx="64.32" fy="-585.32" r="1.33" xlink:href="#k"/><radialGradient id="v" cx="53.83" cy="-493.57" fx="53.83" fy="-493.57" r="2.78" xlink:href="#k"/><radialGradient id="w" cx="55.32" cy="-552.12" fx="55.32" fy="-552.12" r="2.78" xlink:href="#k"/></defs><g class="au"><g id="a"/><g id="b"><g id="c"><g><path class="y" d="M232.24,102.37c-.21,.23-.45,.45-.73,.66-20.64,16.86-199.54,16.26-224.45,1.12-1.31-.78-2.18-1.62-2.6-2.49C-4.38,83.26,.42,27.91,14.45,15.93,29.51,3.1,209.45-2.7,228.05,13.61c13.65,11.96,20.15,71.98,4.18,88.75Z"/><path class="x" d="M4.46,98.01c8.52,17.75,210.22,19.17,227.79,.72,15.96-16.77,9.47-76.79-4.18-88.76C209.46-6.34,29.51-.53,14.45,12.3,.41,24.27-4.37,79.62,4.46,98.01Z"/><path class="ac" d="M12.71,91.97s27.23,14.58,111.13,14.58,97.36-14.58,97.36-14.58H12.71Z"/><path class="ae" d="M231.51,91.96v11.07c-20.64,16.86-199.54,16.26-224.45,1.12l.52-3.33,5.13-8.86,215.1-9.99,3.7,9.99Z"/><path class="aa" d="M10.76,89.96c7.73,16.11,195.08,20.64,211.03,3.89,14.5-15.22,8.6-69.72-3.8-80.59C201.1-1.55,34.63,8.85,20.96,20.51,8.21,31.37,2.74,73.26,10.76,89.96Z"/><path class="a`" d="M11.38,87.12c7.71,15.54,193.94,16.65,209.83,.5,14.44-14.68,8.76-63.22-3.59-73.7C200.79-.37,34.94,9.66,21.32,20.9,8.62,31.37,3.39,71.01,11.38,87.12Z"/><path class="ab" d="M13.7,85.74c7.54,15.08,189.75,16.15,205.29,.48,14.13-14.25,8.57-61.35-3.51-71.52C199.02,.85,36.75,10.58,23.43,21.48,11,31.65,5.88,70.12,13.7,85.74Z"/><path class="al" d="M22.95,21.55S150.01-4.21,215.93,14.94c0,0,5.8,7.27,8.44,18.72,0,0-24.01,8.59-57.92,10.13-33.91,1.54-69.36-17.62-97.99-20.48-28.63-2.86-45.51-1.76-45.51-1.76Z"/><path class="ak" d="M215.29,86.51s-84.99,14.97-192.01,1.76c0,0,69.53,6.03,100.46,0,52.52-10.23,77.75-13.26,91.56-1.76Z"/><path class="ac" d="M18.19,28.07s2.66-5.47,8.85-8.41c6.19-2.93,23.79-5.87,24.79-5.13,1,.74-8.58,4.21-13.53,6.03-4.95,1.82-17.58,8.91-20.1,7.51Z"/><path class="ac" d="M17.65,29.54c-1.27,.19-4.45,10.06-4.26,11.69s4.01-3.51,4.61-6.23c.6-2.73-.35-5.45-.35-5.45Z"/><g><g><path class="ai" d="M41.06,36.26c1.47-.09,2.73,1.03,2.81,2.5,.09,1.47-1.03,2.73-2.5,2.81-1.47,.09-2.73-1.03-2.81-2.5s1.03-2.73,2.5-2.81Z"/><path class="ad" d="M41.38,38.17c.41-.02,.76,.29,.78,.69,.02,.41-.29,.76-.69,.78-.41,.02-.76-.29-.78-.69-.02-.41,.29-.76,.69-.78Z"/></g><g><path class="ar" d="M44.67,24.84c1.47-.09,2.73,1.03,2.81,2.5,.09,1.47-1.03,2.73-2.5,2.81s-2.73-1.03-2.81-2.5,1.03-2.73,2.5-2.81Z"/><path class="ad" d="M44.99,26.75c.41-.02,.76,.29,.78,.69,.02,.41-.29,.76-.69,.78s-.76-.29-.78-.69c-.02-.41,.29-.76,.69-.78Z"/></g><g><path class="aj" d="M42.54,57.61c1.47-.09,2.73,1.03,2.81,2.5,.09,1.47-1.03,2.73-2.5,2.81s-2.73-1.03-2.81-2.5c-.09-1.47,1.03-2.73,2.5-2.81Z"/><path class="ad" d="M42.86,59.52c.41-.02,.76,.29,.78,.69,.02,.41-.29,.76-.69,.78s-.76-.29-.78-.69c-.02-.41,.29-.76,.69-.78Z"/></g><g><path class="as" d="M30.02,18.99c4.1-.25,7.63,2.88,7.88,6.99,.25,4.1-2.88,7.63-6.99,7.88-4.1,.25-7.63-2.88-7.88-6.99-.25-4.1,2.88-7.63,6.99-7.88Z"/><path class="ad" d="M30.91,24.33c1.14-.07,2.11,.8,2.18,1.94,.07,1.14-.8,2.11-1.93,2.18-1.14,.07-2.11-.8-2.18-1.93-.07-1.14,.8-2.11,1.93-2.18Z"/></g><g><path class="aq" d="M182.82,72.91c4.1-.25,7.63,2.88,7.88,6.99,.25,4.1-2.88,7.63-6.99,7.88-4.1,.25-7.63-2.88-7.88-6.99-.25-4.1,2.88-7.63,6.99-7.88Z"/><path class="ad" d="M183.72,78.25c1.14-.07,2.11,.8,2.18,1.93,.07,1.14-.8,2.11-1.94,2.18-1.14,.07-2.11-.8-2.18-1.94-.07-1.14,.8-2.11,1.93-2.18Z"/></g><g><path class="ap" d="M221.24,69.35c1.96-.12,3.64,1.38,3.76,3.34,.12,1.96-1.38,3.64-3.34,3.76s-3.64-1.38-3.76-3.34c-.12-1.96,1.38-3.64,3.34-3.76Z"/><path class="ad" d="M221.67,71.9c.54-.03,1.01,.38,1.04,.92s-.38,1.01-.92,1.04c-.54,.03-1.01-.38-1.04-.92s.38-1.01,.92-1.04Z"/></g><g><path class="am" d="M51.25,75.83c1.96-.12,3.64,1.38,3.76,3.34,.12,1.96-1.38,3.64-3.34,3.76-1.96,.12-3.64-1.38-3.76-3.34s1.38-3.64,3.34-3.76Z"/><path class="ad" d="M51.68,78.38c.54-.03,1.01,.38,1.04,.92,.03,.54-.38,1.01-.92,1.04-.54,.03-1.01-.38-1.04-.92s.38-1.01,.92-1.04Z"/></g><g><path class="ao" d="M153.34,62.54c.98-.06,1.82,.69,1.88,1.67s-.69,1.82-1.67,1.88c-.98,.06-1.82-.69-1.88-1.67-.06-.98,.69-1.82,1.67-1.88Z"/><path class="ad" d="M153.55,63.82c.27-.02,.5,.19,.52,.46s-.19,.5-.46,.52-.5-.19-.52-.46c-.02-.27,.19-.5,.46-.52Z"/></g><g><path class="an" d="M19.68,85.22c.98-.06,1.82,.69,1.88,1.67,.06,.98-.69,1.82-1.67,1.88s-1.82-.69-1.88-1.67,.69-1.82,1.67-1.88Z"/><path class="ad" d="M19.9,86.49c.27-.02,.5,.19,.52,.46,.02,.27-.19,.5-.46,.52-.27,.02-.5-.19-.52-.46s.19-.5,.46-.52Z"/></g><g><path class="af" d="M69.64,54.69c.98-.06,1.82,.69,1.88,1.67,.06,.98-.69,1.82-1.67,1.88-.98,.06-1.82-.69-1.88-1.67-.06-.98,.69-1.82,1.67-1.88Z"/><path class="ad" d="M69.86,55.97c.27-.02,.5,.19,.52,.46s-.19,.5-.46,.52c-.27,.02-.5-.19-.52-.46s.19-.5,.46-.52Z"/></g><g><path class="ah" d="M44.98,82.6c.73-.04,1.36,.51,1.4,1.24,.04,.73-.51,1.36-1.24,1.4-.73,.04-1.36-.51-1.4-1.24-.04-.73,.51-1.36,1.24-1.4Z"/><path class="ad" d="M45.14,83.55c.2-.01,.38,.14,.39,.34,.01,.2-.14,.38-.34,.39-.2,.01-.38-.14-.39-.34-.01-.2,.14-.38,.34-.39Z"/></g><g><path class="ag" d="M137.09,86.15c1.53-.09,2.85,1.08,2.94,2.61,.09,1.53-1.08,2.85-2.61,2.94-1.53,.09-2.85-1.08-2.94-2.61-.09-1.53,1.08-2.85,2.61-2.94Z"/><path class="ad" d="M137.43,88.15c.42-.03,.79,.3,.81,.72,.03,.42-.3,.79-.72,.81-.42,.03-.79-.3-.81-.72-.03-.42,.3-.79,.72-.81Z"/></g><g><path class="at" d="M78.56,88.15c1.53-.09,2.85,1.08,2.94,2.61,.09,1.53-1.08,2.85-2.61,2.94-1.53,.09-2.85-1.08-2.94-2.61-.09-1.53,1.08-2.85,2.61-2.94Z"/><path class="ad" d="M78.89,90.14c.42-.03,.79,.3,.81,.72,.03,.42-.3,.79-.72,.81-.42,.03-.79-.3-.81-.72s.3-.79,.72-.81Z"/></g></g><path class="ac" d="M212.99,90.75c-.89-1.59,6.98-8.81,8.97-8.78,1.99,.03,.22,4.75-.99,5.86-1.21,1.1-7.54,3.71-7.98,2.92Z"/></g></g></g></g></svg>