<?xml version="1.0" encoding="UTF-8"?><svg xmlns="http://www.w3.org/2000/svg" viewBox="0 0 156.77 98.68"><defs><style>.d{fill:#ffd74e;}.e{fill:#fefefe;opacity:.55;}</style></defs><g id="a"/><g id="b"><g id="c"><g><rect class="e" width="156.77" height="98.68" rx="13.44" ry="13.44"/><rect class="e" x="3.24" y="3.24" width="150.28" height="92.19" rx="10.19" ry="10.19"/><path class="d" d="M143.33,0H13.44C6.03,0,0,6.03,0,13.44V85.24c0,7.41,6.03,13.44,13.44,13.44H143.33c7.41,0,13.44-6.03,13.44-13.44V13.44c0-7.41-6.03-13.44-13.44-13.44Zm10.19,85.24c0,5.63-4.56,10.19-10.19,10.19H13.44c-5.63,0-10.19-4.56-10.19-10.19V13.44C3.24,7.81,7.81,3.24,13.44,3.24H143.33c5.63,0,10.19,4.56,10.19,10.19V85.24Z"/></g></g></g></svg>