<?xml version="1.0" encoding="UTF-8"?><svg xmlns="http://www.w3.org/2000/svg" xmlns:xlink="http://www.w3.org/1999/xlink" viewBox="0 0 55.45 54.26"><defs><style>.f{fill:url(#e);}.g{fill:#ffbd00;}.h{fill:#d45b71;isolation:isolate;opacity:.2;}</style><radialGradient id="e" cx="-418.04" cy="1297.46" fx="-418.04" fy="1297.46" r="36.65" gradientTransform="translate(-211.68 -1330.47) rotate(-27.77)" gradientUnits="userSpaceOnUse"><stop offset="0" stop-color="#fc0"/><stop offset=".85" stop-color="#ff7f00"/></radialGradient></defs><g id="a"/><g id="b"><g id="c"><g id="d"><path class="f" d="M54.99,24.89c2.6,13.9-6.2,24.2-19.3,27.9-1.1,.3-2.3,.6-3.5,.8-9.5,1.8-18.5-.1-24.6-5.4-3.5-3.1-6.1-7.5-7.1-13C-2.31,20.09,7.09,3.19,22.19,.39c3.2-.6,6.4-.5,9.5,.2,5.5,1.2,10.5,4.1,14.6,8.1,4.3,4.3,7.5,10,8.7,16.2h0Z"/><path class="g" d="M6.89,40.79c-3.5-.5-5.6-15.9-2.7-20.5,2.9-4.6,8.2-1.8,10.7,2s-2.9,19.2-8,18.5h0Z"/><path class="h" d="M35.69,52.79c-1.1,.3-2.3,.6-3.5,.8-9.5,1.8-18.5-.1-24.6-5.4,2.9-6.4,11.3-14.2,15.9-13.1,4.3,1.1,10.4,10.3,12.2,17.7Z"/><path class="h" d="M10.99,11.49c.2,2.1,8.2,2.3,9.5-.8s2-7.1-.2-8.2-9.7,5.7-9.3,9Z"/></g></g></g></svg>