<?xml version="1.0" encoding="UTF-8"?><svg xmlns="http://www.w3.org/2000/svg" xmlns:xlink="http://www.w3.org/1999/xlink" viewBox="0 0 42.61 42.61"><defs><style>.g{fill:url(#e);}.h{fill:url(#d);}.i{fill:url(#f);}.j{fill:#190078;mix-blend-mode:multiply;opacity:.2;}.k{isolation:isolate;}</style><radialGradient id="d" cx="26.01" cy="9.66" fx="26.01" fy="9.66" r="24.73" gradientTransform="matrix(1, 0, 0, 1, 0, 0)" gradientUnits="userSpaceOnUse"><stop offset="0" stop-color="#c0d6fa"/><stop offset=".17" stop-color="#b5c7f0"/><stop offset=".49" stop-color="#98a2d8"/><stop offset=".92" stop-color="#6967b1"/><stop offset="1" stop-color="#605ba9"/></radialGradient><radialGradient id="e" cx="28.75" cy="15.71" fx="28.75" fy="15.71" r="23.77" gradientTransform="translate(-3.8 -5.61) scale(1.01)" gradientUnits="userSpaceOnUse"><stop offset="0" stop-color="#9095c7"/><stop offset=".2" stop-color="#8188bc"/><stop offset=".57" stop-color="#5c67a1"/><stop offset="1" stop-color="#2a3b7c"/></radialGradient><radialGradient id="f" cx="17.95" cy="8.68" fx="17.95" fy="8.68" r="23.33" gradientTransform="translate(6.88 3.47) scale(.98 .99)" gradientUnits="userSpaceOnUse"><stop offset=".28" stop-color="#4a5190"/><stop offset=".46" stop-color="#464c8f"/><stop offset=".66" stop-color="#3c3e8e"/><stop offset=".87" stop-color="#2c278c"/><stop offset="1" stop-color="#20168b"/></radialGradient></defs><g class="k"><g id="a"/><g id="b"><g id="c"><g><path class="h" d="M42.61,21.31c0,7.93-4.33,14.85-10.77,18.51-3.1,1.79-6.7,2.79-10.53,2.79C9.54,42.61,0,33.07,0,21.31c0-.51,.02-1.01,.06-1.5C.82,8.75,10.04,0,21.31,0s21.31,9.54,21.31,21.31Z"/><path class="g" d="M41.57,21.77c0,7.76-4.23,14.53-10.51,18.11-3.02,1.75-6.53,2.73-10.28,2.73C9.3,42.61,0,33.28,0,21.77c0-.5,.02-.99,.06-1.46C.8,9.48,9.8,.92,20.78,.92s20.78,9.34,20.78,20.84Z"/><path class="i" d="M.06,20.95c-.04,.47-.06,.94-.06,1.42,0,11.18,8.94,20.24,19.98,20.24,3.6,0,6.97-.96,9.88-2.65,6.04-3.48,10.1-10.05,10.1-17.58,0-.4-.27-1-.28-1.45,0-.23,.01-.47,0-.7-.01-.51-.12-.99-.11-1.5,0-.26,.02-.52,0-.77-.01-.23-.11-.43-.12-.66-.02-.49-.18-.96-.08-1.45,.07-.33,.21-.63-.13-.85-.22-.14-.29-.08-.45-.35-.12-.21-.25-.35-.41-.53-.24-.25-.55-.51-.72-.81-.03-.06-.18-.23-.19-.28-.01-.13,.14-.24,.07-.36-.28-.07-.57,.04-.85-.02-.33-.07-.39-.4-.44-.71-.03-.2,.03-.31,.08-.5,.04-.17,.02-.34,.02-.52v.27c0-.31,.08-.76-.02-1.05-.07-.21-.37-.54-.53-.69-.29-.27-.52-.26-.87-.35-.45-.12-.37-.62-.57-.97-.09-.17-.2-.25-.33-.38-.31-.31-.56-.7-.82-1.05-.48-.65-.86-.63-1.61-.67-.67-.04-1.51-.3-2.11-.58-.89-.42-1.77-.97-2.78-.79-.6,.11-1.15,.46-1.75,.49-.55,.03-.96-.22-1.43-.47-.98-.53-1.86-1.2-2.99-1.39-.94-.15-2.01-.26-2.96-.11-1.06,.16-2.02,.55-3.02,.91-1.14,.41-2,1.27-2.98,1.94-.83,.57-1.87,.69-2.66,1.29-.3,.23-.7,.58-.89,.91-.09,.16-.13,.35-.21,.51-.14,.27-.36,.49-.56,.71-1.71,1.9-4.62,2.58-5.88,4.8-.21,.37-.73,2.36-.85,2.76-.24,.77,1.5,1.33,1.29,2.11-.06,.23-.23,.43-.35,.64-.11,.21-.21,.49-.39,.65-.24,.21-.83,.28-1.05,.55Z"/><path class="j" d="M38.01,28.06c-.17-.9-.73-1.64-1.23-2.38-.38-.56-.81-1.09-1.19-1.64-.29-.41-.57-.88-.92-1.24-.39-.41-.98-1-.68-1.63,.16-.34,.56-.53,.83-.77,.29-.27,.53-.6,.77-.91,.28-.36,.3-.68,.44-1.1,.15-.46,.25-.78,.14-1.26-.1-.39,.03-.72-.24-1.07-.19-.27-.5-.49-.79-.64-.58-.32-1.03-.59-1.44-1.11-.22-.28-.32-.61-.66-.78-.33-.16-.7-.08-1.06-.12-.47-.05-1.35-.14-1.69-.53-.6-.67,0-1.8-.86-2.29-.53-.3-1.13-.6-1.76-.6-.96-.02-1.99,.3-2.91,.53-.87,.23-1.71,.76-1.89,1.7-.06,.28,.04,.55,.09,.83,.08,.35,.12,.65,.28,.97,.68,1.38,2.33,1.94,3.61,2.61,1.03,.54,1.31,1.66,.92,2.71-.24,.64-.92,1.11-1.37,1.59-.31,.33-.65,.64-.95,.97-.27,.31-.46,.69-.69,1.03-.5,.76-.77,1.63-1.34,2.36-.54,.68-1.07,1.35-1.89,1.68-.74,.31-1.54,.18-2.32,.3-.69,.1-1.42,.12-2.13,.09-.39-.02-.74-.12-1.14-.11-.42,0-.79-.03-1.2-.11-.83-.18-1.72-.5-2.44-.94-.48-.29-.88-.73-1.03-1.28-.14-.53-.07-1.41,.18-1.88,.5-.93,1.78-1.37,2.78-1.16,.96,.19,1.86,.9,2.72,1.33,.88,.44,1.68,.58,2.49-.03,.32-.25,.44-.46,.66-.79,.14-.2,.36-.32,.55-.46,.67-.51,1.32-1.02,1.89-1.65,.53-.6,1.02-1.16,.99-2.01-.03-.71-.32-1.22-.75-1.76-.39-.5-.72-.99-1-1.58-.25-.53-.73-.84-1.3-.97-.52-.11-1.16-.17-1.65,.11-.16,.09-.26,.22-.37,.37-.08,.12-.11,.19-.24,.32-.24,.25-.45,.58-.67,.84-.3,.37-.65,.66-1.02,.95-.55,.46-1.28,.67-1.99,.4-.53-.19-1.12-.37-1.52-.78-.6-.6-.45-1.73-.53-2.5-.11-.95-.17-1.94-.53-2.85-.13-.35-.39-.85-.72-1.06-.26-.17-.6-.16-.9-.11-.53,.09-1,.45-1.43,.74-.6,.4-.8,.94-1.1,1.56-.64,1.3-1.1,2.64-1.69,3.97-.33,.74-.53,1.52-.39,2.35,.17,.91,.05,2.6-1.24,2.64-1.44,.04-1.64-1.65-2.1-2.64-.07-.15-.38-.95-.66-.6-.05,.06-.03,.46-.06,.57-.06,.23-.13,.42-.18,.65-.11,.54-.64,.96-1.22,.95-.09,0-.17-.02-.24-.04-.04,.49-.06,.99-.06,1.5,0,11.77,9.54,21.31,21.31,21.31,3.84,0,7.43-1.01,10.53-2.79-.33-.34-.73-.62-1.1-.82-.63-.33-1.37-.43-2.03-.68-.55-.22-1.17-.3-1.74-.48-.47-.16-1.01-.33-1.41-.61-.23-.16-.31-.46-.47-.68-.12-.16-.19-.35-.32-.52-.36-.48-.91-1.04-.91-1.69s.56-1.09,1.15-1.11c.7-.03,1.44,.2,2.1,.37,.52,.12,1.02,.35,1.52,.53,.38,.13,.77,.25,1.1,.46,.52,.32,1.06,.62,1.68,.64,.66,.03,1.07-.15,1.63-.44,.77-.39,1.16-1.23,1.67-1.91,.24-.31,.41-.67,.68-.95,.17-.17,.37-.3,.53-.46,.32-.3,.6-.56,.97-.79,.18-.11,.44-.18,.58-.32,.13-.12,.23-.38,.3-.53,.25-.53,.33-1.18,.24-1.76Zm-18.87-10.74c.25,.04,.57,.2,.74,.39,.21,.22,.45,.78,.4,1.08-.04,.25-.11,.65-.33,.81-.29,.21-.77,.25-1.11,.31-.21,.04-.4,.09-.62,.04-.12-.03-.37-.04-.48-.08-.62-.25-.48-1.17-.51-1.65l-.17-.08c.57-.53,1.27-.96,2.08-.81Zm-10.86,5.65c-.32-.03-.55-.09-.72-.37-.21-.33-.22-.7-.21-1.08,0-.74,.23-1.51,.5-2.2,.31-.78,.69-1.4,1.16-2.11-.49,.3,.05-.29,.58-.5,.35-.14,.7-.28,1.09-.23,.81,.11,1.67,.96,2,1.68,.28,.6,.17,1.26,.08,1.89,0,.02,0,.03,0,.04,.25-.25,.56-.55,.92-.53,.46,.03,.81,.51,.83,.94,.02,.48-.35,.79-.81,.81-.32,0-.73-.06-.88-.36-.14-.25-.1-.58-.06-.85l-.08,.08c-.75,.74-1.58,1.38-2.34,2.12-.53,.51-1.33,.74-2.05,.67Zm11.48,12.62c-.18,.53-.51,1.08-1.01,1.37-.67,.38-1.65,.41-2.37,.32-.86-.11-1.69-.29-2.53-.5-.98-.24-1.82-.67-2.48-1.44-.98-1.16-1.44-2.99-1.37-4.48,.03-.42,.14-.88,.43-1.21,.16-.17,.33-.32,.5-.48,.09-.09,.2-.29-.18-.08,.18-.36,.38-.71,.59-1.05,.13-.07,.26-.13,.4-.18,.4-.12,.83-.2,1.24-.27,.43-.08,.85-.08,1.28-.08,.48,0,.98-.04,1.45,.08,.42,.11,.8,.32,1.17,.5,.37,.19,.76,.29,1.12,.5,.18,.11,.31,.27,.46,.42,.2,.2,.39,.37,.53,.61,.29,.52,.46,1.03,.62,1.6,.41,1.41,.6,2.95,.13,4.37Zm12.59-8.3c-.25,.42-.72,.73-1.19,.84-.39,.1-.87-.03-1.25-.13-.28-.08-.53-.24-.8-.32-.3-.1-.53-.16-.79-.31-.5-.28-1.04-.46-1.39-.94-.34-.47-.44-1.17-.58-1.73-.13-.52-.25-.98-.09-1.51,.16-.53,.47-.97,.77-1.44,.16-.25,.39-.46,.55-.72,.28-.39,.51-.85,.75-1.25,.45-.28,.92-.6,1.68-.58,.39,0,.72,.09,1.02,.33,.49,.39,.93,.76,1.12,1.38,.09,.29,.17,.59,.25,.88,.09,.3,.07,.59,.1,.89,.03,.28,.1,.55,.13,.83,.04,.31-.03,.59-.06,.9-.02,.26-.03,.55,0,.81,0,.23,.1,.45,.1,.68,0,.4-.1,1.01-.32,1.36Z"/><path class="j" d="M18.14,10.91c-.43-.92-.98-1.8-.92-2.86,.04-.61,.26-1.3,.92-1.44,.53-.11,1.13,.19,1.59,.42,.24,.12,.49,.28,.67,.48,.21,.22,.28,.52,.36,.8,.22,.72,.64,2.13-.24,2.59-.87,.46-1.79,.27-2.37,.01Z"/><path class="j" d="M15.65,6.84c.32,.15,.65,.25,1,.3-.03-.15,.1-.18,.15-.3,.03-.07,.04-.26,.02-.34-.05-.15-.19-.23-.33-.25-.11-.01-.23,.03-.34,0-.08-.02-.07-.08-.16-.08-.24,.02-.36,.38-.34,.57v.08Z"/><path class="j" d="M28.35,7.5c.47-.23,1.48-.89,2.09-.57,.47,.24,.86,.69,1.21,1.09,.26,.3,.53,.87,.38,1.27-.16,.41-.67,.71-1.11,.72-.28,0-.56-.11-.83-.18-.33-.09-.68-.13-.99-.26-.29-.12-.47-.31-.7-.51-.12-.11-.28-.18-.37-.32-.15-.24-.09-.51,0-.75,.09-.24,.33-.74,.31-.48Z"/><path class="j" d="M19.64,28.33c.17,.76,.2,2.26,1.33,2.25,.58,0,.82-.36,.73-.9-.1-.58-.35-1.21-.96-1.42-.12-.04-.39-.12-.52-.11-.2,.03-.4,.32-.58,.42v-.25Z"/></g></g></g></g></svg>